<mxfile host="Electron" modified="2023-06-26T08:06:32.516Z" agent="Mozilla/5.0 (X11; Linux x86_64) AppleWebKit/537.36 (KHTML, like Gecko) draw.io/21.5.0 Chrome/112.0.5615.204 Electron/24.5.1 Safari/537.36" etag="vSs3OFuFn1DoUO0j2HLY" version="21.5.0" type="device">
  <diagram name="Page-1" id="uMtkj1Ftv3p5Sa-9l_ay">
    <mxGraphModel dx="2450" dy="843" grid="1" gridSize="10" guides="1" tooltips="1" connect="1" arrows="1" fold="1" page="1" pageScale="1" pageWidth="850" pageHeight="1100" math="0" shadow="0">
      <root>
        <mxCell id="0" />
        <mxCell id="1" parent="0" />
        <mxCell id="wWX0gEDaJDGyEXmUy9La-1" value="Korisnik" style="whiteSpace=wrap;html=1;align=center;" parent="1" vertex="1">
          <mxGeometry x="60" y="170" width="100" height="40" as="geometry" />
        </mxCell>
        <mxCell id="wWX0gEDaJDGyEXmUy9La-2" value="ID" style="ellipse;whiteSpace=wrap;html=1;align=center;fontStyle=4;" parent="1" vertex="1">
          <mxGeometry x="-130" y="215" width="100" height="40" as="geometry" />
        </mxCell>
        <mxCell id="wWX0gEDaJDGyEXmUy9La-5" value="Ime" style="ellipse;whiteSpace=wrap;html=1;align=center;" parent="1" vertex="1">
          <mxGeometry x="30" y="40" width="100" height="40" as="geometry" />
        </mxCell>
        <mxCell id="wWX0gEDaJDGyEXmUy9La-6" value="Prezime" style="ellipse;whiteSpace=wrap;html=1;align=center;" parent="1" vertex="1">
          <mxGeometry x="-80" y="80" width="100" height="40" as="geometry" />
        </mxCell>
        <mxCell id="wWX0gEDaJDGyEXmUy9La-7" value="" style="endArrow=none;html=1;rounded=0;entryX=0.44;entryY=1.05;entryDx=0;entryDy=0;entryPerimeter=0;exitX=0.5;exitY=0;exitDx=0;exitDy=0;" parent="1" source="wWX0gEDaJDGyEXmUy9La-1" target="wWX0gEDaJDGyEXmUy9La-5" edge="1">
          <mxGeometry width="50" height="50" relative="1" as="geometry">
            <mxPoint x="440" y="460" as="sourcePoint" />
            <mxPoint x="490" y="410" as="targetPoint" />
          </mxGeometry>
        </mxCell>
        <mxCell id="wWX0gEDaJDGyEXmUy9La-8" value="" style="endArrow=none;html=1;rounded=0;entryX=1;entryY=0.5;entryDx=0;entryDy=0;exitX=0;exitY=0.5;exitDx=0;exitDy=0;" parent="1" source="wWX0gEDaJDGyEXmUy9La-1" target="wWX0gEDaJDGyEXmUy9La-6" edge="1">
          <mxGeometry width="50" height="50" relative="1" as="geometry">
            <mxPoint x="400" y="360" as="sourcePoint" />
            <mxPoint x="354" y="332" as="targetPoint" />
          </mxGeometry>
        </mxCell>
        <mxCell id="wWX0gEDaJDGyEXmUy9La-9" value="" style="endArrow=none;html=1;rounded=0;entryX=1;entryY=0;entryDx=0;entryDy=0;exitX=0;exitY=0.75;exitDx=0;exitDy=0;" parent="1" source="wWX0gEDaJDGyEXmUy9La-1" target="wWX0gEDaJDGyEXmUy9La-2" edge="1">
          <mxGeometry width="50" height="50" relative="1" as="geometry">
            <mxPoint x="350" y="380" as="sourcePoint" />
            <mxPoint x="320" y="350" as="targetPoint" />
          </mxGeometry>
        </mxCell>
        <mxCell id="wWX0gEDaJDGyEXmUy9La-10" value="Racun" style="whiteSpace=wrap;html=1;align=center;" parent="1" vertex="1">
          <mxGeometry x="630" y="170" width="100" height="40" as="geometry" />
        </mxCell>
        <mxCell id="wWX0gEDaJDGyEXmUy9La-11" value="ID" style="ellipse;whiteSpace=wrap;html=1;align=center;fontStyle=4;" parent="1" vertex="1">
          <mxGeometry x="600" y="70" width="100" height="40" as="geometry" />
        </mxCell>
        <mxCell id="wWX0gEDaJDGyEXmUy9La-12" value="" style="shape=rhombus;perimeter=rhombusPerimeter;whiteSpace=wrap;html=1;align=center;" parent="1" vertex="1">
          <mxGeometry x="440" y="165" width="70" height="50" as="geometry" />
        </mxCell>
        <mxCell id="wWX0gEDaJDGyEXmUy9La-14" value="" style="endArrow=none;html=1;rounded=0;entryX=0;entryY=0.5;entryDx=0;entryDy=0;exitX=1;exitY=0.5;exitDx=0;exitDy=0;" parent="1" source="wWX0gEDaJDGyEXmUy9La-12" target="wWX0gEDaJDGyEXmUy9La-10" edge="1">
          <mxGeometry width="50" height="50" relative="1" as="geometry">
            <mxPoint x="440" y="460" as="sourcePoint" />
            <mxPoint x="490" y="410" as="targetPoint" />
          </mxGeometry>
        </mxCell>
        <mxCell id="wWX0gEDaJDGyEXmUy9La-15" value="" style="endArrow=classic;html=1;rounded=0;entryX=1;entryY=0.5;entryDx=0;entryDy=0;exitX=0;exitY=0.5;exitDx=0;exitDy=0;" parent="1" source="wWX0gEDaJDGyEXmUy9La-12" target="wWX0gEDaJDGyEXmUy9La-1" edge="1">
          <mxGeometry width="50" height="50" relative="1" as="geometry">
            <mxPoint x="440" y="460" as="sourcePoint" />
            <mxPoint x="490" y="410" as="targetPoint" />
          </mxGeometry>
        </mxCell>
        <mxCell id="wWX0gEDaJDGyEXmUy9La-16" value="" style="endArrow=none;html=1;rounded=0;entryX=0.4;entryY=1.05;entryDx=0;entryDy=0;entryPerimeter=0;exitX=0.5;exitY=0;exitDx=0;exitDy=0;" parent="1" source="wWX0gEDaJDGyEXmUy9La-10" target="wWX0gEDaJDGyEXmUy9La-11" edge="1">
          <mxGeometry width="50" height="50" relative="1" as="geometry">
            <mxPoint x="440" y="460" as="sourcePoint" />
            <mxPoint x="490" y="410" as="targetPoint" />
          </mxGeometry>
        </mxCell>
        <mxCell id="wWX0gEDaJDGyEXmUy9La-19" value="Datum i vrijeme" style="ellipse;whiteSpace=wrap;html=1;align=center;" parent="1" vertex="1">
          <mxGeometry x="720" y="70" width="100" height="40" as="geometry" />
        </mxCell>
        <mxCell id="wWX0gEDaJDGyEXmUy9La-20" value="" style="endArrow=none;html=1;rounded=0;entryX=0.5;entryY=1;entryDx=0;entryDy=0;" parent="1" target="wWX0gEDaJDGyEXmUy9La-19" edge="1">
          <mxGeometry width="50" height="50" relative="1" as="geometry">
            <mxPoint x="700" y="170" as="sourcePoint" />
            <mxPoint x="650" y="122" as="targetPoint" />
          </mxGeometry>
        </mxCell>
        <mxCell id="wWX0gEDaJDGyEXmUy9La-22" value="" style="endArrow=none;html=1;rounded=0;entryX=0;entryY=0.25;entryDx=0;entryDy=0;exitX=1;exitY=0.5;exitDx=0;exitDy=0;" parent="1" source="CLQFQkH-uaahIQlkS5Gx-1" target="q-AJSF_e4BkdiFMXOZ78-1" edge="1">
          <mxGeometry width="50" height="50" relative="1" as="geometry">
            <mxPoint x="960" y="190" as="sourcePoint" />
            <mxPoint x="1090" y="190" as="targetPoint" />
          </mxGeometry>
        </mxCell>
        <mxCell id="wWX0gEDaJDGyEXmUy9La-42" value="" style="endArrow=none;html=1;rounded=0;entryX=0.5;entryY=1;entryDx=0;entryDy=0;exitX=0.5;exitY=0;exitDx=0;exitDy=0;" parent="1" edge="1">
          <mxGeometry width="50" height="50" relative="1" as="geometry">
            <mxPoint x="1140" y="170" as="sourcePoint" />
            <mxPoint x="1225" y="100" as="targetPoint" />
          </mxGeometry>
        </mxCell>
        <mxCell id="wWX0gEDaJDGyEXmUy9La-49" value="Sifra" style="ellipse;whiteSpace=wrap;html=1;align=center;" parent="1" vertex="1">
          <mxGeometry x="160" y="50" width="100" height="40" as="geometry" />
        </mxCell>
        <mxCell id="wWX0gEDaJDGyEXmUy9La-50" value="" style="endArrow=none;html=1;rounded=0;entryX=0.75;entryY=0;entryDx=0;entryDy=0;exitX=0.38;exitY=1;exitDx=0;exitDy=0;exitPerimeter=0;" parent="1" source="wWX0gEDaJDGyEXmUy9La-49" target="wWX0gEDaJDGyEXmUy9La-1" edge="1">
          <mxGeometry width="50" height="50" relative="1" as="geometry">
            <mxPoint x="200" y="210" as="sourcePoint" />
            <mxPoint x="155" y="231" as="targetPoint" />
          </mxGeometry>
        </mxCell>
        <mxCell id="wWX0gEDaJDGyEXmUy9La-59" value="Kolicina" style="ellipse;whiteSpace=wrap;html=1;align=center;" parent="1" vertex="1">
          <mxGeometry x="890" y="100" width="100" height="40" as="geometry" />
        </mxCell>
        <mxCell id="wWX0gEDaJDGyEXmUy9La-60" value="" style="endArrow=none;html=1;rounded=0;entryX=0.5;entryY=1;entryDx=0;entryDy=0;exitX=0.5;exitY=0;exitDx=0;exitDy=0;" parent="1" source="CLQFQkH-uaahIQlkS5Gx-1" target="wWX0gEDaJDGyEXmUy9La-59" edge="1">
          <mxGeometry width="50" height="50" relative="1" as="geometry">
            <mxPoint x="925" y="165" as="sourcePoint" />
            <mxPoint x="1125" y="120" as="targetPoint" />
          </mxGeometry>
        </mxCell>
        <mxCell id="q-AJSF_e4BkdiFMXOZ78-1" value="Proizvod" style="whiteSpace=wrap;html=1;align=center;" parent="1" vertex="1">
          <mxGeometry x="1090" y="175" width="100" height="40" as="geometry" />
        </mxCell>
        <mxCell id="q-AJSF_e4BkdiFMXOZ78-3" value="ID" style="ellipse;whiteSpace=wrap;html=1;align=center;fontStyle=4;" parent="1" vertex="1">
          <mxGeometry x="1180" y="60" width="100" height="40" as="geometry" />
        </mxCell>
        <mxCell id="q-AJSF_e4BkdiFMXOZ78-4" value="" style="endArrow=none;html=1;rounded=0;entryX=0;entryY=0.5;entryDx=0;entryDy=0;exitX=1;exitY=0.5;exitDx=0;exitDy=0;" parent="1" source="wWX0gEDaJDGyEXmUy9La-10" target="CLQFQkH-uaahIQlkS5Gx-1" edge="1">
          <mxGeometry width="50" height="50" relative="1" as="geometry">
            <mxPoint x="970" y="200" as="sourcePoint" />
            <mxPoint x="890" y="190" as="targetPoint" />
          </mxGeometry>
        </mxCell>
        <mxCell id="LlmAp3Jcx0G5IWVWPpvB-1" value="Cijena" style="ellipse;whiteSpace=wrap;html=1;align=center;" parent="1" vertex="1">
          <mxGeometry x="1290" y="90" width="100" height="40" as="geometry" />
        </mxCell>
        <mxCell id="LlmAp3Jcx0G5IWVWPpvB-2" value="" style="endArrow=none;html=1;rounded=0;entryX=0.27;entryY=0.95;entryDx=0;entryDy=0;exitX=1;exitY=0.25;exitDx=0;exitDy=0;entryPerimeter=0;" parent="1" source="q-AJSF_e4BkdiFMXOZ78-1" target="LlmAp3Jcx0G5IWVWPpvB-1" edge="1">
          <mxGeometry width="50" height="50" relative="1" as="geometry">
            <mxPoint x="1140" y="181" as="sourcePoint" />
            <mxPoint x="1125" y="120" as="targetPoint" />
          </mxGeometry>
        </mxCell>
        <mxCell id="CLQFQkH-uaahIQlkS5Gx-1" value="" style="shape=associativeEntity;whiteSpace=wrap;html=1;align=center;" parent="1" vertex="1">
          <mxGeometry x="890" y="165" width="60" height="50" as="geometry" />
        </mxCell>
        <mxCell id="CLQFQkH-uaahIQlkS5Gx-3" value="Izvjestaj" style="whiteSpace=wrap;html=1;align=center;" parent="1" vertex="1">
          <mxGeometry x="500" y="350" width="100" height="40" as="geometry" />
        </mxCell>
        <mxCell id="CLQFQkH-uaahIQlkS5Gx-4" value="" style="shape=rhombus;perimeter=rhombusPerimeter;whiteSpace=wrap;html=1;align=center;" parent="1" vertex="1">
          <mxGeometry x="690" y="300" width="70" height="50" as="geometry" />
        </mxCell>
        <mxCell id="CLQFQkH-uaahIQlkS5Gx-5" value="" style="endArrow=classic;html=1;rounded=0;entryX=1;entryY=0;entryDx=0;entryDy=0;exitX=0.5;exitY=1;exitDx=0;exitDy=0;" parent="1" source="CLQFQkH-uaahIQlkS5Gx-4" target="CLQFQkH-uaahIQlkS5Gx-3" edge="1">
          <mxGeometry width="50" height="50" relative="1" as="geometry">
            <mxPoint x="790" y="470" as="sourcePoint" />
            <mxPoint x="840" y="420" as="targetPoint" />
          </mxGeometry>
        </mxCell>
        <mxCell id="CLQFQkH-uaahIQlkS5Gx-6" value="" style="endArrow=none;html=1;rounded=0;entryX=0.5;entryY=1;entryDx=0;entryDy=0;exitX=0.5;exitY=0;exitDx=0;exitDy=0;" parent="1" source="CLQFQkH-uaahIQlkS5Gx-4" target="CLQFQkH-uaahIQlkS5Gx-1" edge="1">
          <mxGeometry width="50" height="50" relative="1" as="geometry">
            <mxPoint x="790" y="470" as="sourcePoint" />
            <mxPoint x="840" y="420" as="targetPoint" />
          </mxGeometry>
        </mxCell>
        <mxCell id="CLQFQkH-uaahIQlkS5Gx-7" value="" style="shape=rhombus;perimeter=rhombusPerimeter;whiteSpace=wrap;html=1;align=center;" parent="1" vertex="1">
          <mxGeometry x="320" y="250" width="70" height="50" as="geometry" />
        </mxCell>
        <mxCell id="CLQFQkH-uaahIQlkS5Gx-8" value="" style="endArrow=classic;html=1;rounded=0;entryX=1;entryY=1;entryDx=0;entryDy=0;exitX=0.5;exitY=0;exitDx=0;exitDy=0;" parent="1" source="CLQFQkH-uaahIQlkS5Gx-7" target="wWX0gEDaJDGyEXmUy9La-1" edge="1">
          <mxGeometry width="50" height="50" relative="1" as="geometry">
            <mxPoint x="790" y="470" as="sourcePoint" />
            <mxPoint x="840" y="420" as="targetPoint" />
          </mxGeometry>
        </mxCell>
        <mxCell id="CLQFQkH-uaahIQlkS5Gx-9" value="" style="endArrow=none;html=1;rounded=0;entryX=0.5;entryY=1;entryDx=0;entryDy=0;exitX=0;exitY=0;exitDx=0;exitDy=0;" parent="1" source="CLQFQkH-uaahIQlkS5Gx-3" target="CLQFQkH-uaahIQlkS5Gx-7" edge="1">
          <mxGeometry width="50" height="50" relative="1" as="geometry">
            <mxPoint x="790" y="470" as="sourcePoint" />
            <mxPoint x="840" y="420" as="targetPoint" />
          </mxGeometry>
        </mxCell>
        <mxCell id="CLQFQkH-uaahIQlkS5Gx-10" value="" style="endArrow=none;html=1;rounded=0;exitX=0.871;exitY=0.7;exitDx=0;exitDy=0;exitPerimeter=0;" parent="1" source="wWX0gEDaJDGyEXmUy9La-12" edge="1">
          <mxGeometry width="50" height="50" relative="1" as="geometry">
            <mxPoint x="520" y="200" as="sourcePoint" />
            <mxPoint x="630" y="200" as="targetPoint" />
          </mxGeometry>
        </mxCell>
        <mxCell id="CLQFQkH-uaahIQlkS5Gx-11" value="ID" style="ellipse;whiteSpace=wrap;html=1;align=center;fontStyle=4;" parent="1" vertex="1">
          <mxGeometry x="390" y="400" width="100" height="40" as="geometry" />
        </mxCell>
        <mxCell id="CLQFQkH-uaahIQlkS5Gx-12" value="" style="endArrow=none;html=1;rounded=0;entryX=0.41;entryY=0.025;entryDx=0;entryDy=0;exitX=0;exitY=1;exitDx=0;exitDy=0;entryPerimeter=0;" parent="1" source="CLQFQkH-uaahIQlkS5Gx-3" target="CLQFQkH-uaahIQlkS5Gx-11" edge="1">
          <mxGeometry width="50" height="50" relative="1" as="geometry">
            <mxPoint x="530" y="210" as="sourcePoint" />
            <mxPoint x="650" y="210" as="targetPoint" />
          </mxGeometry>
        </mxCell>
        <mxCell id="CLQFQkH-uaahIQlkS5Gx-13" value="Datum" style="ellipse;whiteSpace=wrap;html=1;align=center;" parent="1" vertex="1">
          <mxGeometry x="550" y="425" width="100" height="40" as="geometry" />
        </mxCell>
        <mxCell id="CLQFQkH-uaahIQlkS5Gx-14" value="" style="endArrow=none;html=1;rounded=0;entryX=0.5;entryY=0;entryDx=0;entryDy=0;exitX=0.44;exitY=1.075;exitDx=0;exitDy=0;exitPerimeter=0;" parent="1" source="CLQFQkH-uaahIQlkS5Gx-3" target="CLQFQkH-uaahIQlkS5Gx-13" edge="1">
          <mxGeometry width="50" height="50" relative="1" as="geometry">
            <mxPoint x="540" y="220" as="sourcePoint" />
            <mxPoint x="660" y="220" as="targetPoint" />
          </mxGeometry>
        </mxCell>
        <mxCell id="zgI6c0aV51XPYoaqWLNQ-1" value="Kategorija" style="whiteSpace=wrap;html=1;align=center;" parent="1" vertex="1">
          <mxGeometry x="1470" y="420" width="100" height="40" as="geometry" />
        </mxCell>
        <mxCell id="zgI6c0aV51XPYoaqWLNQ-2" value="Naziv" style="ellipse;whiteSpace=wrap;html=1;align=center;fontStyle=4;" parent="1" vertex="1">
          <mxGeometry x="1640" y="390" width="100" height="40" as="geometry" />
        </mxCell>
        <mxCell id="zgI6c0aV51XPYoaqWLNQ-3" value="" style="shape=rhombus;perimeter=rhombusPerimeter;whiteSpace=wrap;html=1;align=center;" parent="1" vertex="1">
          <mxGeometry x="1105" y="300" width="70" height="50" as="geometry" />
        </mxCell>
        <mxCell id="zgI6c0aV51XPYoaqWLNQ-4" value="" style="endArrow=none;html=1;rounded=0;entryX=0.5;entryY=1;entryDx=0;entryDy=0;exitX=0.5;exitY=0;exitDx=0;exitDy=0;" parent="1" source="zgI6c0aV51XPYoaqWLNQ-3" target="q-AJSF_e4BkdiFMXOZ78-1" edge="1">
          <mxGeometry width="50" height="50" relative="1" as="geometry">
            <mxPoint x="1390" y="460" as="sourcePoint" />
            <mxPoint x="1440" y="410" as="targetPoint" />
          </mxGeometry>
        </mxCell>
        <mxCell id="zgI6c0aV51XPYoaqWLNQ-5" value="" style="endArrow=classic;html=1;rounded=0;exitX=0.5;exitY=1;exitDx=0;exitDy=0;entryX=0.41;entryY=-0.1;entryDx=0;entryDy=0;entryPerimeter=0;" parent="1" source="zgI6c0aV51XPYoaqWLNQ-3" target="zgI6c0aV51XPYoaqWLNQ-7" edge="1">
          <mxGeometry width="50" height="50" relative="1" as="geometry">
            <mxPoint x="1390" y="460" as="sourcePoint" />
            <mxPoint x="1440" y="410" as="targetPoint" />
          </mxGeometry>
        </mxCell>
        <mxCell id="zgI6c0aV51XPYoaqWLNQ-6" value="" style="endArrow=none;html=1;rounded=0;entryX=0;entryY=0.7;entryDx=0;entryDy=0;exitX=1;exitY=0.5;exitDx=0;exitDy=0;entryPerimeter=0;" parent="1" source="zgI6c0aV51XPYoaqWLNQ-1" target="zgI6c0aV51XPYoaqWLNQ-2" edge="1">
          <mxGeometry width="50" height="50" relative="1" as="geometry">
            <mxPoint x="1150" y="300" as="sourcePoint" />
            <mxPoint x="1150" y="225" as="targetPoint" />
          </mxGeometry>
        </mxCell>
        <mxCell id="zgI6c0aV51XPYoaqWLNQ-10" value="" style="shape=rhombus;perimeter=rhombusPerimeter;whiteSpace=wrap;html=1;align=center;" parent="1" vertex="1">
          <mxGeometry x="1270" y="415" width="70" height="50" as="geometry" />
        </mxCell>
        <mxCell id="zgI6c0aV51XPYoaqWLNQ-11" value="" style="endArrow=none;html=1;rounded=0;entryX=1;entryY=0.5;entryDx=0;entryDy=0;exitX=0;exitY=0.5;exitDx=0;exitDy=0;" parent="1" source="zgI6c0aV51XPYoaqWLNQ-10" target="zgI6c0aV51XPYoaqWLNQ-7" edge="1">
          <mxGeometry width="50" height="50" relative="1" as="geometry">
            <mxPoint x="1230" y="460" as="sourcePoint" />
            <mxPoint x="1150" y="225" as="targetPoint" />
          </mxGeometry>
        </mxCell>
        <mxCell id="zgI6c0aV51XPYoaqWLNQ-12" value="" style="endArrow=classic;html=1;rounded=0;exitX=1;exitY=0.5;exitDx=0;exitDy=0;entryX=0;entryY=0.5;entryDx=0;entryDy=0;" parent="1" source="zgI6c0aV51XPYoaqWLNQ-10" target="zgI6c0aV51XPYoaqWLNQ-1" edge="1">
          <mxGeometry width="50" height="50" relative="1" as="geometry">
            <mxPoint x="1150" y="350" as="sourcePoint" />
            <mxPoint x="1150" y="440" as="targetPoint" />
          </mxGeometry>
        </mxCell>
        <mxCell id="zgI6c0aV51XPYoaqWLNQ-14" value="" style="endArrow=none;html=1;rounded=0;entryX=0.43;entryY=1.025;entryDx=0;entryDy=0;exitX=0;exitY=0.5;exitDx=0;exitDy=0;entryPerimeter=0;" parent="1" source="zgI6c0aV51XPYoaqWLNQ-7" target="zgI6c0aV51XPYoaqWLNQ-15" edge="1">
          <mxGeometry width="50" height="50" relative="1" as="geometry">
            <mxPoint x="1530" y="440" as="sourcePoint" />
            <mxPoint x="1592" y="389" as="targetPoint" />
          </mxGeometry>
        </mxCell>
        <mxCell id="zgI6c0aV51XPYoaqWLNQ-15" value="Naziv" style="ellipse;whiteSpace=wrap;html=1;align=center;fontStyle=4;" parent="1" vertex="1">
          <mxGeometry x="900" y="430" width="100" height="40" as="geometry" />
        </mxCell>
        <mxCell id="RSRVF3-I9pPMVt7UNTp9-1" value="Uloga" style="whiteSpace=wrap;html=1;align=center;" parent="1" vertex="1">
          <mxGeometry x="60" y="465" width="100" height="40" as="geometry" />
        </mxCell>
        <mxCell id="RSRVF3-I9pPMVt7UNTp9-2" value="" style="shape=rhombus;perimeter=rhombusPerimeter;whiteSpace=wrap;html=1;align=center;" parent="1" vertex="1">
          <mxGeometry x="75" y="310" width="70" height="50" as="geometry" />
        </mxCell>
        <mxCell id="RSRVF3-I9pPMVt7UNTp9-3" value="" style="endArrow=none;html=1;rounded=0;entryX=0.38;entryY=1.1;entryDx=0;entryDy=0;exitX=0.329;exitY=0.06;exitDx=0;exitDy=0;entryPerimeter=0;exitPerimeter=0;" parent="1" source="RSRVF3-I9pPMVt7UNTp9-2" target="wWX0gEDaJDGyEXmUy9La-1" edge="1">
          <mxGeometry width="50" height="50" relative="1" as="geometry">
            <mxPoint x="510" y="360" as="sourcePoint" />
            <mxPoint x="365" y="310" as="targetPoint" />
          </mxGeometry>
        </mxCell>
        <mxCell id="RSRVF3-I9pPMVt7UNTp9-4" value="" style="endArrow=none;html=1;rounded=0;entryX=0.6;entryY=0.95;entryDx=0;entryDy=0;exitX=0.629;exitY=0.12;exitDx=0;exitDy=0;entryPerimeter=0;exitPerimeter=0;" parent="1" source="RSRVF3-I9pPMVt7UNTp9-2" target="wWX0gEDaJDGyEXmUy9La-1" edge="1">
          <mxGeometry width="50" height="50" relative="1" as="geometry">
            <mxPoint x="108" y="323" as="sourcePoint" />
            <mxPoint x="108" y="224" as="targetPoint" />
          </mxGeometry>
        </mxCell>
        <mxCell id="RSRVF3-I9pPMVt7UNTp9-5" value="" style="endArrow=classic;html=1;rounded=0;entryX=0.5;entryY=0;entryDx=0;entryDy=0;exitX=0.5;exitY=1;exitDx=0;exitDy=0;" parent="1" source="RSRVF3-I9pPMVt7UNTp9-2" target="RSRVF3-I9pPMVt7UNTp9-1" edge="1">
          <mxGeometry width="50" height="50" relative="1" as="geometry">
            <mxPoint x="365" y="260" as="sourcePoint" />
            <mxPoint x="170" y="220" as="targetPoint" />
          </mxGeometry>
        </mxCell>
        <mxCell id="RSRVF3-I9pPMVt7UNTp9-6" value="Naziv" style="ellipse;whiteSpace=wrap;html=1;align=center;fontStyle=4;" parent="1" vertex="1">
          <mxGeometry x="-60" y="560" width="100" height="40" as="geometry" />
        </mxCell>
        <mxCell id="RSRVF3-I9pPMVt7UNTp9-7" value="" style="endArrow=none;html=1;rounded=0;entryX=0.5;entryY=0;entryDx=0;entryDy=0;exitX=0.25;exitY=1;exitDx=0;exitDy=0;" parent="1" source="RSRVF3-I9pPMVt7UNTp9-1" target="RSRVF3-I9pPMVt7UNTp9-6" edge="1">
          <mxGeometry width="50" height="50" relative="1" as="geometry">
            <mxPoint x="129" y="326" as="sourcePoint" />
            <mxPoint x="130" y="218" as="targetPoint" />
          </mxGeometry>
        </mxCell>
        <mxCell id="HVuiGWgNAw1tJiiY6GvW-2" value="Naziv" style="ellipse;whiteSpace=wrap;html=1;align=center;" vertex="1" parent="1">
          <mxGeometry x="1300" y="170" width="100" height="40" as="geometry" />
        </mxCell>
        <mxCell id="HVuiGWgNAw1tJiiY6GvW-3" value="" style="endArrow=none;html=1;rounded=0;entryX=0;entryY=0.5;entryDx=0;entryDy=0;exitX=1;exitY=0.75;exitDx=0;exitDy=0;" edge="1" parent="1" source="q-AJSF_e4BkdiFMXOZ78-1" target="HVuiGWgNAw1tJiiY6GvW-2">
          <mxGeometry width="50" height="50" relative="1" as="geometry">
            <mxPoint x="1200" y="195" as="sourcePoint" />
            <mxPoint x="1327" y="138" as="targetPoint" />
          </mxGeometry>
        </mxCell>
        <mxCell id="zgI6c0aV51XPYoaqWLNQ-7" value="Vrsta" style="whiteSpace=wrap;html=1;align=center;" parent="1" vertex="1">
          <mxGeometry x="1100" y="420" width="100" height="40" as="geometry" />
        </mxCell>
      </root>
    </mxGraphModel>
  </diagram>
</mxfile>
